<svg width="18" height="19" viewBox="0 0 18 19" fill="none" xmlns="http://www.w3.org/2000/svg">
<path d="M7.79287 7.64376C8.20573 4.97942 9.39561 2.85782 11.744 1.52095C13.5463 0.496563 15.4795 0.114769 17.5253 0.273361C18.1434 5.38119 14.9507 9.57975 10.8487 10.4491C10.4637 10.5301 10.4196 10.7416 10.422 11.0705C10.4312 13.1839 10.4254 15.2985 10.4254 17.4118C10.4254 17.6433 10.4254 17.8747 10.4254 18.1461C9.51158 18.1461 8.65338 18.1461 7.73256 18.1461C7.72328 17.9334 7.70589 17.7255 7.70589 17.5176C7.70357 15.3842 7.69777 13.2509 7.71169 11.1175C7.714 10.7287 7.62818 10.5313 7.2072 10.4338C3.88691 9.67138 1.19867 6.72158 0.676792 3.28308C0.586334 2.6863 0.581696 2.07543 0.517911 1.47396C0.470362 1.02873 0.601411 0.823145 1.08386 0.866611C1.54427 0.906552 2.01048 0.874834 2.47437 0.874834C3.23863 0.874834 3.24906 0.874834 3.24674 1.6302C3.24094 3.54505 3.96345 5.12861 5.36208 6.39735C6.04516 7.01527 6.83145 7.44993 7.79287 7.64376ZM10.6214 7.48634C12.0317 7.42291 14.2769 5.38471 14.5865 3.44519C12.9618 3.41817 10.9902 5.40821 10.6214 7.48634Z" fill="#FF9D1B"/>
</svg>
